<svg width="25" height="24" viewBox="0 0 25 24" fill="none" xmlns="http://www.w3.org/2000/svg">
<path d="M12.6089 24C5.98386 24 0.608887 18.625 0.608887 12C0.608887 5.375 5.98386 0 12.6089 0C19.2339 0 24.6089 5.375 24.6089 12C24.6089 18.625 19.2339 24 12.6089 24ZM12.6089 0.874999C6.48386 0.874999 1.42138 5.875 1.42138 12.0625C1.42138 18.1875 6.42136 23.25 12.6089 23.25C18.7339 23.25 23.7964 18.25 23.7964 12.0625C23.7964 5.875 18.7964 0.874999 12.6089 0.874999Z" fill="#0A0A0A"/>
<path d="M3.60764 9.99951H2.79517C2.73267 9.99951 2.67017 10.062 2.67017 10.1245V12.0619C2.67017 12.1244 2.73267 12.1869 2.79517 12.1869H3.60764C3.67014 12.1869 3.73264 12.1244 3.73264 12.0619V10.1245C3.73264 10.062 3.67014 9.99951 3.60764 9.99951Z" fill="#0A0A0A"/>
<path d="M20.9819 9.25H19.7319C19.6069 9.25 19.5444 9.3125 19.5444 9.4375V10.8125H5.79445V9.4375C5.79445 9.3125 5.73196 9.25 5.60696 9.25H4.35696C4.23196 9.25 4.16943 9.3125 4.16943 9.4375V12.75C4.16943 12.875 4.23196 12.9375 4.35696 12.9375H5.60696C5.73196 12.9375 5.79445 12.875 5.79445 12.75V11.4375H6.66943C6.41943 11.75 6.41945 12.1875 6.73195 12.5L10.4819 16.75C10.5444 16.8125 10.5444 16.875 10.5444 16.9375V23.4999C10.5444 23.6249 10.6069 23.6874 10.7319 23.6874H14.5444C14.6694 23.6874 14.7319 23.6249 14.7319 23.4999V17.625C14.7319 17.625 14.7319 17.125 14.7319 16.9375C14.7319 16.75 14.8569 16.625 14.8569 16.625L18.6069 12.4375C18.8569 12.125 18.8569 11.6875 18.6694 11.375H19.5444V12.6875C19.5444 12.8125 19.6069 12.875 19.7319 12.875H20.9819C21.1069 12.875 21.1694 12.8125 21.1694 12.6875V9.375C21.1694 9.3125 21.0444 9.25 20.9819 9.25ZM17.4194 11.4375L14.4819 14.6875L14.4194 14.8125C14.2944 14.9375 14.107 15.0625 13.732 15.0625H11.6069C11.2319 15.0625 10.9819 14.9375 10.8569 14.875L7.79446 11.4375H11.7944C11.2944 11.6875 10.9819 12.25 10.9819 12.875C10.9819 13.75 11.7319 14.5 12.6069 14.5C13.4819 14.5 14.2319 13.75 14.2319 12.875C14.2319 12.25 13.9195 11.75 13.4195 11.4375H17.4194Z" fill="#0A0A0A"/>
<path d="M22.4829 9.99951H21.6704C21.6079 9.99951 21.5454 10.062 21.5454 10.1245V12.0619C21.5454 12.1244 21.6079 12.1869 21.6704 12.1869H22.4829C22.5454 12.1869 22.6079 12.1244 22.6079 12.0619V10.1245C22.6079 10.062 22.5454 9.99951 22.4829 9.99951Z" fill="#0A0A0A"/>
</svg>
