<svg width="24" height="24" viewBox="0 0 24 24" fill="none" xmlns="http://www.w3.org/2000/svg">
<path d="M12 24C5.375 24 0 18.625 0 12C0 5.375 5.375 0 12 0C18.625 0 24 5.375 24 12C23.9375 18.625 18.5625 24 12 24ZM12 0.874999C5.875 0.874999 0.81253 5.875 0.81253 12.0625C0.81253 18.1875 5.8125 23.25 12 23.25C18.1875 23.25 23.1875 18.25 23.1875 12.0625C23.125 5.875 18.125 0.874999 12 0.874999Z" fill="#0A0A0A"/>
<path d="M11.4326 8.01611C11.4326 8.01611 8.54342 11.9613 7.12958 13.9026C6.14604 13.9026 5.10102 13.9026 4.11748 13.9026C3.74865 13.9652 3.31836 14.1531 3.31836 14.7793C3.31836 15.7186 4.11748 15.7812 4.11748 15.7812H7.6828C7.6828 15.7812 7.99017 15.7812 8.23605 15.656C8.54341 15.4681 8.85077 15.0924 8.85077 15.0924L10.5105 13.0885L12.0473 14.9045L11.1867 19.5385C11.1867 19.5385 10.8793 20.4779 11.9858 20.6657C12.7234 20.8536 12.9079 20.4779 12.9693 19.9143C13.2767 18.2861 13.5841 16.6579 13.8914 14.9671C13.8914 14.8419 14.0758 14.4662 13.9529 14.0278C13.8914 13.7147 13.707 13.5895 13.6455 13.4642C13.2767 13.0885 11.9858 11.5856 11.9858 11.5856L13.8914 9.01806L14.9979 10.3957C14.9979 10.3957 15.2438 10.7088 15.5511 10.7088C15.8585 10.7088 16.1659 10.2705 16.1659 10.2705C16.1659 10.2705 17.4567 8.76757 18.0714 7.95348C18.3173 7.64038 18.2559 7.20202 18.01 6.95154C17.7026 6.70105 17.3953 6.63843 17.0879 6.95154C16.5962 7.51513 15.9814 8.20397 15.4896 8.83019C14.5061 7.76562 13.8299 7.01416 13.5841 6.63843C13.5226 6.5758 13.4611 6.38794 13.2152 6.32532C12.9693 6.26269 12.6005 6.2627 12.6005 6.2627H10.0802C10.0802 6.2627 9.8343 6.26269 9.64988 6.32532C9.404 6.38794 9.28105 6.63842 9.21958 6.70105C8.48192 7.64038 7.80574 8.64233 7.06809 9.58166C6.88367 9.89476 6.94515 10.3331 7.19104 10.521C7.49839 10.7715 7.99018 10.6462 8.1746 10.2705C8.78931 9.45641 10.0187 7.82824 10.0187 7.82824L11.4326 8.01611Z" fill="#0A0A0A"/>
<path d="M15.1228 7.0752C15.9037 7.0752 16.5367 6.43062 16.5367 5.6355C16.5367 4.84038 15.9037 4.1958 15.1228 4.1958C14.342 4.1958 13.709 4.84038 13.709 5.6355C13.709 6.43062 14.342 7.0752 15.1228 7.0752Z" fill="#0A0A0A"/>
</svg>
