<svg width="25" height="24" viewBox="0 0 25 24" fill="none" xmlns="http://www.w3.org/2000/svg">
<path d="M12.2163 24C5.59132 24 0.216309 18.625 0.216309 12C0.216309 5.375 5.59132 0 12.2163 0C18.8413 0 24.2163 5.375 24.2163 12C24.1538 18.625 18.8413 24 12.2163 24ZM12.2163 0.874999C6.09132 0.874999 1.0288 5.875 1.0288 12.0625C1.0288 18.1875 6.02882 23.25 12.2163 23.25C18.3413 23.25 23.4038 18.25 23.4038 12.0625C23.3413 5.875 18.3413 0.874999 12.2163 0.874999Z" fill="#0A0A0A"/>
<path d="M17.9652 7.68798C17.6527 7.68798 17.3402 7.93797 17.3402 8.25047L15.4027 8.56297L13.7152 6.87549C13.7152 6.87549 13.7152 6.87549 13.6527 6.87549L13.5902 6.81299H13.5277H13.4652H13.4027H13.3402H13.2777C13.2777 6.81299 13.2777 6.81299 13.2152 6.81299H11.3402C11.3402 6.81299 11.3402 6.81299 11.2777 6.81299H11.2152H11.1527H11.0902H11.0277H10.9652L10.9027 6.87549C10.9027 6.87549 10.9027 6.87549 10.8402 6.87549L9.1527 8.56297L7.21521 8.25047C7.21521 7.93797 6.90271 7.62548 6.59021 7.62548C6.21521 7.62548 5.96521 7.93797 5.96521 8.25047V8.75046C5.96521 9.06296 6.21519 9.31296 6.52769 9.37546L9.34019 9.81295C9.40269 9.81295 9.4027 9.81295 9.4652 9.81295C9.6527 9.81295 9.77771 9.75045 9.90271 9.62545L10.9027 8.62547V12.6879L7.84021 14.8754C7.52771 15.1254 7.40269 15.5004 7.46519 15.8754C7.59019 16.2504 7.90268 16.5004 8.27768 16.5629L11.9652 16.9379V20.5003C11.9652 21.0003 12.4027 21.4378 12.9027 21.4378C13.4027 21.4378 13.8402 21.0003 13.8402 20.5003V13.0004V12.9379V8.75046L14.8402 9.75045C14.9652 9.87545 15.1527 9.93795 15.2777 9.93795C15.3402 9.93795 15.3402 9.93795 15.4027 9.93795L18.2152 9.50045C18.5277 9.43795 18.7777 9.18796 18.7777 8.87546V8.37547C18.5902 7.93797 18.3402 7.68798 17.9652 7.68798ZM11.8402 15.1879L10.7777 15.0629L11.8402 14.3129V15.1879Z" fill="#0A0A0A"/>
<path d="M12.2769 6.43732C13.1519 6.43732 13.9018 5.68736 13.9018 4.81241C13.9018 3.93746 13.1519 3.1875 12.2769 3.1875C11.4018 3.1875 10.6519 3.93746 10.6519 4.81241C10.6519 5.68736 11.4018 6.43732 12.2769 6.43732Z" fill="#0A0A0A"/>
</svg>
