<svg width="191" height="31" viewBox="0 0 191 31" fill="none" xmlns="http://www.w3.org/2000/svg">
<g clip-path="url(#clip0_769_46)">
<path d="M115.305 2.46777L111.39 17.6615C111.32 17.9207 111.297 18.486 111.297 19.3576C111.297 19.8994 111.32 20.7003 111.367 21.7603C111.413 22.8204 111.436 23.6213 111.436 24.1395H108.03V19.1456C108.007 18.698 108.007 18.2269 108.007 17.7322L104.393 2.46777H107.799L109.791 12.1494L111.899 2.46777H115.305Z" fill="#0A0A0A"/>
<path d="M127.816 19.452C127.816 20.8418 127.33 22.0196 126.38 22.9854C125.407 23.9748 124.248 24.4459 122.904 24.4459H122.047C120.68 24.4459 119.522 23.9512 118.572 22.9854C117.599 21.9961 117.135 20.8183 117.135 19.452V7.03787C117.135 5.64805 117.622 4.47024 118.572 3.50443C119.545 2.51507 120.703 2.04395 122.047 2.04395H122.904C124.271 2.04395 125.43 2.53863 126.38 3.50443C127.353 4.49379 127.816 5.67161 127.816 7.03787V19.452ZM124.549 18.5569V7.83878C124.549 6.9672 124.457 6.33118 124.295 5.95428C124.017 5.36537 123.484 5.05914 122.742 5.05914C121.19 5.05914 120.402 6.00139 120.402 7.86233V18.5804C120.402 20.4414 121.12 21.3836 122.534 21.3836C123.878 21.3365 124.549 20.4178 124.549 18.5569Z" fill="#0A0A0A"/>
<path d="M141.624 19.4519C141.624 20.8417 141.138 22.0195 140.188 22.9853C139.215 23.9747 138.057 24.4458 136.713 24.4458H135.856C134.489 24.4458 133.33 23.9511 132.38 22.9853C131.407 21.996 130.944 20.8182 130.944 19.4519V2.25586H134.187V18.5568C134.187 20.4177 134.906 21.36 136.319 21.36C137.663 21.36 138.311 20.4177 138.311 18.5568V2.25586H141.601V19.4519H141.624Z" fill="#0A0A0A"/>
<path d="M46.1472 12.8091C46.1472 14.2225 45.7765 15.3532 45.0119 16.2012C44.2473 17.0493 43.2048 17.4968 41.8378 17.4968H38.8259V24.1868H35.4202V2.0675L41.2354 2.04395C42.6024 2.04395 43.7608 2.53863 44.7107 3.50443C45.6838 4.49379 46.1472 5.67161 46.1472 7.03787V12.8091ZM42.8572 11.8905V7.81522C42.8572 6.73164 42.7182 6.00139 42.4634 5.64805C42.1158 5.20048 41.3976 4.98847 40.3087 4.98847H38.8028V14.6701L40.8416 14.6936C41.6525 14.6936 42.2085 14.411 42.5097 13.8692C42.7414 13.4687 42.8572 12.8091 42.8572 11.8905Z" fill="#E30517"/>
<path d="M58.2411 19.452C58.2411 20.8418 57.7546 22.0196 56.8047 22.9854C55.8316 23.9748 54.6732 24.4459 53.3294 24.4459H52.4722C51.1053 24.4459 49.9468 23.9512 48.9969 22.9854C48.0239 21.9961 47.5605 20.8183 47.5605 19.452V7.03787C47.5605 5.64805 48.047 4.47024 48.9969 3.50443C49.97 2.51507 51.1284 2.04395 52.4722 2.04395H53.3294C54.6964 2.04395 55.8548 2.53863 56.8047 3.50443C57.7778 4.49379 58.2411 5.67161 58.2411 7.03787V19.452ZM54.9744 18.5569V7.83878C54.9744 6.9672 54.8817 6.33118 54.7195 5.95428C54.4415 5.36537 53.9086 5.05914 53.1673 5.05914C51.615 5.05914 50.8272 6.00139 50.8272 7.86233V18.5804C50.8272 20.4414 51.5455 21.3836 52.9587 21.3836C54.3025 21.3365 54.9744 20.4178 54.9744 18.5569Z" fill="#E30517"/>
<path d="M77.7491 2.46777L73.9726 24.1866L70.451 24.1631L68.4585 12.2672L66.3965 24.1866L62.8749 24.1631L59.2375 2.49133H62.6432L64.6357 17.1904L66.7441 2.49133H70.2193L72.2118 17.1904L74.3201 2.49133H77.7491V2.46777Z" fill="#E30517"/>
<path d="M88.8003 21.0536V24.1631H78.8379V2.49133L88.8003 2.46777V5.5772H82.2668V11.4191H88.8003V14.5286H82.2668V21.0772H88.8003V21.0536Z" fill="#E30517"/>
<path d="M100.987 24.1632H97.6968V18.8395C97.6968 17.5439 97.2566 16.7194 96.3993 16.3425C95.8896 16.1305 94.9166 16.0363 93.4338 16.0363V24.1632H90.028V2.37365L95.8433 2.3501C97.2102 2.3501 98.3687 2.84478 99.3186 3.81058C100.292 4.79995 100.755 5.97776 100.755 7.34402V11.0895C100.755 11.749 100.546 12.4793 100.153 13.2331C99.7356 13.9869 99.2491 14.4816 98.693 14.7407C99.2954 15.0233 99.8283 15.4709 100.268 16.0834C100.755 16.743 100.987 17.4025 100.987 18.0621V24.1632ZM97.4883 10.2179V8.14493C97.4883 7.03779 97.3261 6.30754 97.0017 5.90709C96.6774 5.50663 95.9823 5.29463 94.9166 5.29463H93.4569V13.0211L95.5189 13.0446C96.8164 13.0211 97.4883 12.1024 97.4883 10.2179Z" fill="#E30517"/>
<path d="M0.96875 30.5L25.62 17.5912L27.543 8.21582L11.2787 16.7432C5.97313 19.5228 2.19668 24.5638 0.96875 30.5Z" fill="#810F02"/>
<path d="M6.29749 4.68248L18.5999 12.9036L27.5429 8.21591L16.0977 0.583695C12.3213 -1.96038 7.22422 0.183239 6.29749 4.68248Z" fill="#E30517"/>
<path d="M154.969 18.4038C151.932 18.4038 149.469 15.9403 149.469 12.9038C149.469 9.86735 151.932 7.40381 154.969 7.40381C158.005 7.40381 160.469 9.86735 160.469 12.9038C160.44 15.9403 157.977 18.4038 154.969 18.4038ZM154.969 7.80485C152.161 7.80485 149.841 10.0965 149.841 12.9325C149.841 15.7397 152.133 18.0601 154.969 18.0601C157.805 18.0601 160.096 15.7684 160.096 12.9325C160.068 10.0965 157.776 7.80485 154.969 7.80485Z" fill="#0A0A0A"/>
<path d="M154.709 11.0781C154.709 11.0781 153.385 12.8863 152.737 13.776C152.286 13.776 151.807 13.776 151.356 13.776C151.187 13.8047 150.99 13.8908 150.99 14.1778C150.99 14.6084 151.356 14.6371 151.356 14.6371H152.99C152.99 14.6371 153.131 14.6371 153.244 14.5797C153.385 14.4936 153.525 14.3214 153.525 14.3214L154.286 13.4029L154.991 14.2352L154.596 16.3592C154.596 16.3592 154.455 16.7897 154.962 16.8758C155.3 16.9619 155.385 16.7897 155.413 16.5314C155.554 15.7851 155.695 15.0389 155.836 14.2639C155.836 14.2065 155.92 14.0343 155.864 13.8334C155.836 13.6899 155.751 13.6325 155.723 13.5751C155.554 13.4029 154.962 12.7141 154.962 12.7141L155.836 11.5373L156.343 12.1687C156.343 12.1687 156.456 12.3122 156.596 12.3122C156.737 12.3122 156.878 12.1113 156.878 12.1113C156.878 12.1113 157.47 11.4225 157.752 11.0494C157.864 10.9059 157.836 10.7049 157.723 10.5901C157.583 10.4753 157.442 10.4466 157.301 10.5901C157.075 10.8484 156.794 11.1642 156.568 11.4512C156.117 10.9633 155.808 10.6188 155.695 10.4466C155.667 10.4179 155.638 10.3318 155.526 10.3031C155.413 10.2744 155.244 10.2744 155.244 10.2744H154.089C154.089 10.2744 153.976 10.2744 153.892 10.3031C153.779 10.3318 153.723 10.4466 153.694 10.4753C153.356 10.9059 153.046 11.3651 152.708 11.7956C152.624 11.9391 152.652 12.14 152.765 12.2261C152.906 12.3409 153.131 12.2835 153.216 12.1113C153.497 11.7382 154.061 10.992 154.061 10.992L154.709 11.0781Z" fill="#0A0A0A"/>
<path d="M156.4 10.6464C156.758 10.6464 157.048 10.351 157.048 9.98652C157.048 9.62209 156.758 9.32666 156.4 9.32666C156.042 9.32666 155.752 9.62209 155.752 9.98652C155.752 10.351 156.042 10.6464 156.4 10.6464Z" fill="#0A0A0A"/>
<path d="M169.969 18.4038C166.932 18.4038 164.469 15.9403 164.469 12.9038C164.469 9.86735 166.932 7.40381 169.969 7.40381C173.005 7.40381 175.469 9.86735 175.469 12.9038C175.469 15.9403 173.005 18.4038 169.969 18.4038ZM169.969 7.80485C167.161 7.80485 164.841 10.0965 164.841 12.9325C164.841 15.7397 167.133 18.0601 169.969 18.0601C172.776 18.0601 175.096 15.7684 175.096 12.9325C175.096 10.0965 172.805 7.80485 169.969 7.80485Z" fill="#0A0A0A"/>
<path d="M165.843 11.9868H165.471C165.442 11.9868 165.413 12.0155 165.413 12.0441V12.9321C165.413 12.9607 165.442 12.9894 165.471 12.9894H165.843C165.872 12.9894 165.9 12.9607 165.9 12.9321V12.0441C165.9 12.0155 165.872 11.9868 165.843 11.9868Z" fill="#0A0A0A"/>
<path d="M173.806 11.6436H173.233C173.176 11.6436 173.148 11.6722 173.148 11.7295V12.3597H166.845V11.7295C166.845 11.6722 166.817 11.6436 166.76 11.6436H166.187C166.129 11.6436 166.101 11.6722 166.101 11.7295V13.2477C166.101 13.305 166.129 13.3336 166.187 13.3336H166.76C166.817 13.3336 166.845 13.305 166.845 13.2477V12.6462H167.247C167.132 12.7894 167.132 12.9899 167.275 13.1331L168.994 15.081C169.023 15.1097 169.023 15.1383 169.023 15.167V18.1748C169.023 18.2321 169.051 18.2607 169.108 18.2607H170.856C170.913 18.2607 170.942 18.2321 170.942 18.1748V15.4821C170.942 15.4821 170.942 15.2529 170.942 15.167C170.942 15.081 170.999 15.0237 170.999 15.0237L172.718 13.1045C172.832 12.9613 172.832 12.7607 172.747 12.6175H173.148V13.2191C173.148 13.2764 173.176 13.305 173.233 13.305H173.806C173.864 13.305 173.892 13.2764 173.892 13.2191V11.7008C173.892 11.6722 173.835 11.6436 173.806 11.6436ZM172.174 12.6462L170.827 14.1357L170.799 14.193C170.741 14.2503 170.655 14.3076 170.483 14.3076H169.51C169.338 14.3076 169.223 14.2503 169.166 14.2217L167.762 12.6462H169.595C169.366 12.7607 169.223 13.0185 169.223 13.305C169.223 13.706 169.567 14.0498 169.968 14.0498C170.369 14.0498 170.713 13.706 170.713 13.305C170.713 13.0185 170.569 12.7894 170.34 12.6462H172.174Z" fill="#0A0A0A"/>
<path d="M174.494 11.9868H174.122C174.093 11.9868 174.065 12.0155 174.065 12.0441V12.9321C174.065 12.9607 174.093 12.9894 174.122 12.9894H174.494C174.523 12.9894 174.552 12.9607 174.552 12.9321V12.0441C174.552 12.0155 174.523 11.9868 174.494 11.9868Z" fill="#0A0A0A"/>
<path d="M184.969 18.4038C181.932 18.4038 179.469 15.9403 179.469 12.9038C179.469 9.86735 181.932 7.40381 184.969 7.40381C188.005 7.40381 190.469 9.86735 190.469 12.9038C190.44 15.9403 188.005 18.4038 184.969 18.4038ZM184.969 7.80485C182.161 7.80485 179.841 10.0965 179.841 12.9325C179.841 15.7397 182.133 18.0601 184.969 18.0601C187.776 18.0601 190.096 15.7684 190.096 12.9325C190.068 10.0965 187.776 7.80485 184.969 7.80485Z" fill="#0A0A0A"/>
<path d="M187.604 10.9274C187.46 10.9274 187.317 11.042 187.317 11.1852L186.429 11.3284L185.656 10.555C185.656 10.555 185.656 10.555 185.627 10.555L185.598 10.5264H185.57H185.541H185.513H185.484H185.455C185.455 10.5264 185.455 10.5264 185.427 10.5264H184.567C184.567 10.5264 184.567 10.5264 184.539 10.5264H184.51H184.481H184.453H184.424H184.395L184.367 10.555C184.367 10.555 184.367 10.555 184.338 10.555L183.565 11.3284L182.677 11.1852C182.677 11.042 182.533 10.8988 182.39 10.8988C182.218 10.8988 182.104 11.042 182.104 11.1852V11.4144C182.104 11.5576 182.218 11.6722 182.362 11.7008L183.651 11.9013C183.679 11.9013 183.679 11.9013 183.708 11.9013C183.794 11.9013 183.851 11.8727 183.908 11.8154L184.367 11.3571V13.219L182.963 14.2216C182.82 14.3362 182.763 14.5081 182.791 14.68C182.848 14.8518 182.992 14.9664 183.164 14.9951L184.854 15.1669V16.7997C184.854 17.0289 185.054 17.2294 185.283 17.2294C185.513 17.2294 185.713 17.0289 185.713 16.7997V13.3623V13.3336V11.4144L186.171 11.8727C186.229 11.93 186.315 11.9586 186.372 11.9586C186.401 11.9586 186.401 11.9586 186.429 11.9586L187.718 11.7581C187.862 11.7295 187.976 11.6149 187.976 11.4717V11.2425C187.89 11.042 187.776 10.9274 187.604 10.9274ZM184.796 14.3649L184.309 14.3076L184.796 13.9638V14.3649Z" fill="#0A0A0A"/>
<path d="M184.996 10.3542C185.398 10.3542 185.741 10.0105 185.741 9.6095C185.741 9.20848 185.398 8.86475 184.996 8.86475C184.595 8.86475 184.252 9.20848 184.252 9.6095C184.252 10.0105 184.595 10.3542 184.996 10.3542Z" fill="#0A0A0A"/>
</g>
<defs>
<clipPath id="clip0_769_46">
<rect width="190" height="31" fill="white" transform="translate(0.96875)"/>
</clipPath>
</defs>
</svg>
