<svg width="20" height="20" viewBox="0 0 20 20" fill="none" xmlns="http://www.w3.org/2000/svg">
<path d="M4.16699 12.5H3.33366C2.89163 12.5 2.46771 12.3244 2.15515 12.0118C1.84259 11.6993 1.66699 11.2754 1.66699 10.8333V3.33332C1.66699 2.8913 1.84259 2.46737 2.15515 2.15481C2.46771 1.84225 2.89163 1.66666 3.33366 1.66666H10.8337C11.2757 1.66666 11.6996 1.84225 12.0122 2.15481C12.3247 2.46737 12.5003 2.8913 12.5003 3.33332V4.16666M9.16699 7.49999H16.667C17.5875 7.49999 18.3337 8.24618 18.3337 9.16666V16.6667C18.3337 17.5871 17.5875 18.3333 16.667 18.3333H9.16699C8.24652 18.3333 7.50033 17.5871 7.50033 16.6667V9.16666C7.50033 8.24618 8.24652 7.49999 9.16699 7.49999Z" stroke="#E30517" stroke-width="1.67" stroke-linecap="round" stroke-linejoin="round"/>
</svg>
